<?xml version="1.0" encoding="UTF-8" standalone="no"?>
<svg
   xmlns:dc="http://purl.org/dc/elements/1.1/"
   xmlns:cc="http://creativecommons.org/ns#"
   xmlns:rdf="http://www.w3.org/1999/02/22-rdf-syntax-ns#"
   xmlns:svg="http://www.w3.org/2000/svg"
   xmlns="http://www.w3.org/2000/svg"
   xmlns:sodipodi="http://sodipodi.sourceforge.net/DTD/sodipodi-0.dtd"
   xmlns:inkscape="http://www.inkscape.org/namespaces/inkscape"
   width="50.799999mm"
   height="50.799999mm"
   viewBox="0 0 50.799999 50.799997"
   version="1.1"
   id="svg8"
   inkscape:version="1.0.2-2 (e86c870879, 2021-01-15)"
   sodipodi:docname="Icon_192.svg">
  <defs
     id="defs2" />
  <sodipodi:namedview
     id="base"
     pagecolor="#ffffff"
     bordercolor="#666666"
     borderopacity="1.0"
     inkscape:pageopacity="0.0"
     inkscape:pageshadow="2"
     inkscape:zoom="1"
     inkscape:cx="162.20143"
     inkscape:cy="241.80909"
     inkscape:document-units="mm"
     inkscape:current-layer="layer1"
     inkscape:document-rotation="0"
     showgrid="false"
     fit-margin-top="0"
     fit-margin-left="0"
     fit-margin-right="0"
     fit-margin-bottom="0"
     inkscape:window-width="1920"
     inkscape:window-height="1009"
     inkscape:window-x="1912"
     inkscape:window-y="-8"
     inkscape:window-maximized="1" />
  <metadata
     id="metadata5">
    <rdf:RDF>
      <cc:Work
         rdf:about="">
        <dc:format>image/svg+xml</dc:format>
        <dc:type
           rdf:resource="http://purl.org/dc/dcmitype/StillImage" />
        <dc:title></dc:title>
      </cc:Work>
    </rdf:RDF>
  </metadata>
  <g
     inkscape:label="Layer 1"
     inkscape:groupmode="layer"
     id="layer1"
     transform="translate(-4.3465891,-37.621666)"
     style="display:inline">
    <rect
       style="display:inline;fill:#e3e3e3;fill-opacity:1;fill-rule:evenodd;stroke-width:0.113947"
       id="rect1204"
       width="50.799999"
       height="50.799999"
       x="4.3465891"
       y="37.621666"
       rx="12.094847"
       ry="12.094847" />
    <path
       style="display:inline;fill:#30a9c2;fill-opacity:1;stroke-width:0.0692991"
       d="m 34.240265,82.31333 -11.129236,0.01373 -4.904748,-0.03461 -4.904748,-0.03465 -0.261159,-0.260816 -0.26116,-0.260816 -0.03778,-6.145456 -0.03778,-6.145455 -0.01495,-12.172417 -0.01495,-12.172416 0.10056,-0.240382 0.10056,-0.240383 0.229531,-0.139772 0.229531,-0.13977 h 1.456162 1.456162 l 0.229531,0.13977 0.229531,0.139772 0.09935,0.237496 0.09935,0.237495 0.0084,8.470055 0.0084,8.470057 0.09352,0.182062 0.09352,0.182063 0.112247,0.04302 0.112247,0.04302 h 0.826422 0.826421 v -7.31324 -7.313236 l 0.136883,-0.192001 0.136883,-0.192001 0.196496,-0.08129 0.196497,-0.08129 2.168311,0.0202 2.168312,0.0202 0.237281,0.258696 0.237279,0.258697 0.0062,1.957527 0.0062,1.957527 0.08923,-0.311656 0.08923,-0.311657 0.638693,-2.181595 0.638694,-2.181595 0.24004,-0.831084 0.240039,-0.831084 0.101275,-0.154387 0.101276,-0.154387 0.216354,-0.111746 0.216354,-0.111745 0.251045,0.03136 0.251045,0.03136 1.178798,0.349887 1.178797,0.349886 0.862446,0.253006 0.862446,0.253005 0.129374,0.06916 0.129374,0.06916 0.134713,0.220665 0.134712,0.220665 -5.25e-4,0.2424 -5.25e-4,0.242399 -0.103384,0.34039 -0.103387,0.340389 0.01905,0.01903 0.01905,0.01903 1.827511,-0.239676 1.827511,-0.239677 0.246651,0.122655 0.246648,0.122655 0.123982,0.173142 0.123984,0.173143 0.273094,1.731424 0.273097,1.731425 0.217431,1.454397 0.217432,1.454397 0.168879,1.073483 0.168882,1.073483 0.486558,3.030611 0.486558,3.030607 v 0.06612 0.06612 l 2.460108,0.01984 2.460108,0.01984 0.192188,0.19209 0.192188,0.19209 v 1.597001 1.596998 l -0.226452,0.202046 -0.226455,0.20205 H 30.420091 17.310394 l -0.202689,0.202444 -0.202689,0.202444 v 5.514409 5.514405 l 0.159346,0.159154 0.159345,0.15915 0.724753,0.04072 0.724752,0.04072 1.966432,0.0066 1.966431,0.0066 -0.278371,-0.315866 -0.278372,-0.315859 -0.146846,-0.312026 -0.146845,-0.312023 -0.10701,-0.46086 -0.10701,-0.46086 0.0015,-0.835013 0.0015,-0.835008 0.06779,-0.348615 0.06779,-0.348619 0.142983,-0.38169 0.142983,-0.381694 0.348875,-0.390956 0.348873,-0.390953 0.370208,-0.174922 0.370207,-0.174923 0.304038,-0.06768 0.304038,-0.06768 9.866731,-0.01324 9.866729,-0.01324 0.170385,0.159873 0.170385,0.159874 v 0.226466 0.226463 l -0.159953,0.18573 -0.159952,0.185734 -0.271219,0.04403 -0.271215,0.04403 -0.158869,0.235458 -0.158872,0.235467 -0.112305,0.352406 -0.112305,0.352406 -0.03229,0.900338 -0.03229,0.900345 0.112357,0.484796 0.112358,0.4848 0.176662,0.363596 0.176663,0.3636 h 0.152823 0.152824 l 0.161438,0.112939 0.161434,0.112939 0.09762,0.233347 0.09762,0.233348 h 1.111969 1.111968 l 0.210027,0.108476 0.21003,0.10848 0.131711,0.289751 0.131707,0.289748 0.0015,1.198121 0.0015,1.198122 -0.09743,0.18702 -0.09742,0.187016 -0.184331,0.172016 -0.184328,0.17202 -0.498333,0.02205 -0.498338,0.02205 -11.129234,0.01372 z m -1.265472,-6.392551 8.580952,4e-6 v -0.484646 -0.484646 l -8.580952,-1.39e-4 -8.580954,-1.73e-4 v 0.484797 0.4848 z m -2.617625,-13.43586 h 2.626777 l 0.03118,-0.05194 0.03118,-0.05194 -0.159348,-1.004224 -0.159345,-1.004229 -0.177649,-1.177369 -0.177648,-1.177367 -0.316306,-2.07771 -0.316302,-2.077711 -0.238608,-1.558282 -0.238607,-1.558282 -0.03091,-0.207771 -0.03092,-0.207771 -0.0095,-0.03463 -0.0095,-0.03463 -0.195986,0.657941 -0.195986,0.657941 -0.591864,2.043082 -0.591864,2.04308 -0.532761,1.835311 -0.532761,1.835311 -0.439179,1.520354 -0.439178,1.520354 0.03418,0.05524 0.03418,0.05524 z m -4.188544,-0.146426 0.214611,0.0079 0.105445,-0.1212 0.105446,-0.1212 0.04867,-0.207769 0.04867,-0.207772 1.109591,-3.774505 1.109591,-3.774506 0.487031,-1.662168 0.487032,-1.662167 0.194856,-0.657942 0.194857,-0.657941 0.366438,-1.297094 0.36644,-1.297094 -0.0327,-0.03266 -0.0327,-0.03266 -1.315148,-0.382839 -1.315148,-0.382839 -0.430812,-0.132905 -0.430813,-0.132905 -0.06112,0.07944 -0.06112,0.07945 -0.365407,1.211997 -0.365406,1.211997 -0.26224,0.900341 -0.262241,0.900341 -0.429969,1.454397 -0.42997,1.454397 -0.375373,1.32202 -0.375372,1.32202 0.01804,3.179685 0.01805,3.179682 0.728081,0.113291 0.72808,0.113288 z m -3.820346,-0.130602 h 0.03467 v -0.03461 -0.03461 h -0.03467 -0.03467 v 0.03461 0.03461 z m -2.288254,-0.06926 h 0.03467 v -0.03461 -0.03461 h -0.03467 -0.03467 v 0.03461 0.03461 z m 3.32837,0 h 0.03467 v -0.03461 -0.03461 h -0.03467 -0.03467 v 0.03461 0.03461 z m 10.563773,-2.105875 0.184088,-0.03627 1.543659,-0.187676 1.543656,-0.187673 -0.03042,-0.109075 -0.03042,-0.109077 -0.04588,-0.294636 -0.04588,-0.294636 -0.04586,0.02666 -0.04586,0.02666 -1.525504,0.185927 -1.525503,0.185927 -0.163414,0.03328 -0.163413,0.03328 0.04882,0.325795 0.04882,0.325798 0.03452,0.056 0.03452,0.05599 z M 23.388394,57.290644 h 0.03467 v -0.03463 -0.03463 h -0.03467 -0.03467 v 0.03463 0.03463 z m -1.638647,-5.491966 1.707988,-0.01396 0.0208,-0.398227 0.0208,-0.398228 h -1.771658 -1.771656 v 0.36937 0.369371 l 0.04287,0.04282 0.04287,0.04282 z m 1.638647,-3.026644 h 0.03467 v -0.03463 -0.03463 h -0.03467 -0.03467 v 0.03463 0.03463 z m -3.32837,-0.207771 h 0.03467 v -0.03463 -0.03463 h -0.03467 -0.03467 v 0.03463 0.03463 z m 3.32837,0 h 0.03467 v -0.03463 -0.03463 h -0.03467 -0.03467 v 0.03463 0.03463 z"
       id="path1196"
       sodipodi:nodetypes="cccccccccccccccccccccccccccccccccccccccccccccccccccccccccccccccccccccccccccccccccccccccccccccccccccccccccccccccccccccccccccccccccccccccccccccccccccccccccccccccccccccccccccccccccccccccccccccccccccccccccccccccccccccccccccccccccccccccccccccccccccccccccccccccccccccccccccccccccccccccccccccccccccccccccccccccccccccccccccccccccccccc" />
    <path
       style="display:inline;fill:#434343;fill-opacity:1;stroke-width:0.0692991"
       d="m 29.830029,82.292161 -16.371566,2.59e-4 -0.235613,-0.156743 -0.235612,-0.156742 -0.123452,-0.251261 -0.123451,-0.251262 -0.01356,-18.239442 -0.01356,-18.239442 0.05444,-0.154029 0.05444,-0.154029 0.221258,-0.157627 0.221257,-0.157628 h 1.497527 1.497527 l 0.189909,0.101437 0.189909,0.101436 0.115431,0.21022 0.115431,0.21022 0.03467,8.611314 0.03467,8.611316 0.163698,0.132378 0.1637,0.132383 h 0.859081 0.859081 V 55.24534 48.005758 l 0.09548,-0.22824 0.09548,-0.228241 0.244369,-0.11582 0.244368,-0.115819 2.035082,1.38e-4 2.03508,1.38e-4 0.242694,0.121092 0.242694,0.121092 0.122952,0.2424 0.122951,0.242399 -0.01894,1.852681 -0.01894,1.852681 0.03596,-5.6e-5 0.03595,-5.7e-5 0.5349,-1.817996 0.5349,-1.817996 0.43459,-1.517186 0.434591,-1.517187 0.180127,-0.192957 0.180128,-0.192957 0.196867,-0.04935 0.196867,-0.04935 1.113838,0.323445 1.113837,0.323445 1.134955,0.330319 1.134957,0.330319 0.198659,0.198421 0.198662,0.198419 0.04416,0.235085 0.04415,0.235085 -0.11763,0.418727 -0.117633,0.418727 0.03101,0.03098 0.03101,0.03097 1.41315,-0.182313 1.413147,-0.182313 0.386264,-0.04847 0.386266,-0.04847 0.206954,0.05356 0.206957,0.05356 0.159554,0.169632 0.159552,0.169632 0.168222,0.99194 0.168222,0.99194 0.31164,2.07771 0.31164,2.07771 0.413431,2.631767 0.413428,2.631764 0.03807,0.207771 0.03806,0.207771 0.205565,1.315882 0.205562,1.315885 0.04003,0.190455 0.04003,0.190459 h 2.35553 2.355532 l 0.210041,0.108483 0.210042,0.108484 0.09855,0.235575 0.09855,0.235515 v 1.320334 1.32033 l -0.09455,0.22602 -0.09455,0.226016 -0.180372,0.118043 -0.180375,0.118042 H 30.356456 17.245408 l -0.170201,0.169995 -0.170201,0.169995 v 5.573386 5.573392 l 0.114772,0.11463 0.114772,0.114634 0.167106,0.06346 0.167107,0.06345 h 2.569173 2.569173 l -0.247759,-0.273903 -0.247759,-0.273908 -0.134037,-0.262837 -0.134036,-0.262834 -0.116541,-0.380914 -0.116541,-0.380914 -0.03976,-0.845591 -0.03976,-0.845588 0.08684,-0.539553 0.08684,-0.539547 0.191581,-0.422801 0.191581,-0.422809 0.247892,-0.274053 0.247893,-0.27405 0.33909,-0.184335 0.339091,-0.184332 0.444709,-0.1047 0.44471,-0.104696 9.797574,-0.0011 9.797574,-0.0011 0.170201,0.169995 0.170201,0.169995 v 0.201578 0.201581 l -0.1437,0.182464 -0.143703,0.182467 -0.276023,0.04408 -0.276026,0.04408 -0.162544,0.215648 -0.162544,0.215644 -0.122407,0.346286 -0.122404,0.346286 -0.02981,0.969596 -0.02981,0.9696 0.111907,0.478129 0.111904,0.478137 0.182899,0.335636 0.182899,0.335636 0.110325,2.63e-4 0.110328,2.62e-4 0.227097,0.138296 0.227104,0.138293 0.0416,0.207731 0.0416,0.207701 h 1.142097 1.142096 l 0.191985,0.113273 0.191992,0.113269 0.130744,0.2157 0.130744,0.215696 -0.01999,1.349419 -0.01999,1.349415 -0.105116,0.16023 -0.105113,0.16023 -0.221591,0.134951 -0.221591,0.134948 -16.371567,2.58e-4 z m 3.390987,-4.438436 9.069868,0.0063 -0.17169,-0.225086 -0.17169,-0.225083 -0.176614,-0.525903 -0.176617,-0.5259 -0.0068,-0.928497 -0.0068,-0.928496 0.07172,-0.359816 0.07172,-0.359817 0.10917,-0.260962 0.10917,-0.260959 0.112113,-0.123735 0.112114,-0.123735 -0.06275,-0.0015 -0.06275,-0.0015 -9.116883,0.003 -9.116882,0.003 -0.244159,0.125861 -0.244158,0.125865 -0.224761,0.292845 -0.224761,0.292842 -0.11249,0.386486 -0.112491,0.386486 0.02995,0.872854 0.02995,0.872854 0.160703,0.365636 0.160704,0.36564 0.344726,0.309563 0.344727,0.309562 0.21792,0.06306 0.21792,0.06307 9.06987,0.0063 z m -2.898518,-1.863691 h -0.03467 v -0.03465 -0.03461 h 0.03467 0.03467 v 0.03461 0.03465 z m 7.488834,0 h -0.03467 v -0.03465 -0.03461 h 0.03467 0.03467 v 0.03461 0.03465 z M 30.357168,62.484919 h 2.704301 v -0.03514 -0.03514 l -0.210937,-1.367337 -0.21094,-1.367295 -0.310912,-2.043082 -0.310914,-2.043082 -0.240293,-1.592911 -0.240295,-1.592911 -0.155346,-1.056169 -0.155345,-1.056169 -0.03595,6.9e-5 -0.03595,6.9e-5 -0.341072,1.159979 -0.34107,1.159978 -0.223496,0.761826 -0.223497,0.761828 -0.42085,1.454395 -0.420849,1.454397 -0.765445,2.64602 -0.765445,2.646036 v 0.07232 0.07231 z m -4.18106,-0.0789 0.01407,0.0096 0.177054,-0.08057 0.177053,-0.08057 0.133226,-0.456169 0.133226,-0.456169 0.552689,-1.869939 0.552689,-1.869939 0.635821,-2.181597 0.635821,-2.181594 0.370092,-1.246626 0.370093,-1.246626 0.143727,-0.519427 0.143727,-0.519428 0.408679,-1.401363 0.408673,-1.401363 -0.07776,-0.05848 -0.07776,-0.05848 -0.936104,-0.261424 -0.936104,-0.261424 -0.790548,-0.238644 -0.790547,-0.238644 -0.04813,0.05535 -0.04813,0.05534 -0.571863,1.939196 -0.571861,1.939196 -0.230597,0.761827 -0.230595,0.761827 -0.484519,1.662168 -0.484518,1.662167 -0.145965,0.526336 -0.145965,0.526334 0.01803,3.213541 0.01804,3.213543 0.832093,0.146186 0.832092,0.146183 z m 8.334225,-0.02786 0.249992,-0.03592 1.344234,-0.16662 1.344234,-0.166617 0.06058,-0.06051 0.06058,-0.06051 -0.174839,-1.103986 -0.174839,-1.103988 -0.09855,-0.554057 -0.09855,-0.554057 -0.216255,-1.419769 -0.216252,-1.419766 -0.378158,-2.423996 -0.378158,-2.423994 -0.187212,-1.196279 -0.187209,-1.196278 -0.04544,-0.07343 -0.04544,-0.07343 -1.607058,0.202222 -1.607057,0.202222 -0.06867,0.06859 -0.06867,0.06859 0.208341,1.34518 0.208337,1.345181 0.206692,1.385139 0.206692,1.38514 0.283032,1.869939 0.283032,1.869939 0.132537,0.865712 0.132537,0.865712 0.17815,1.173495 0.178146,1.173497 0.112617,0.124287 0.112614,0.12429 z M 21.739834,62.19178 23.457735,62.17325 v -6.856428 -6.856444 h -1.733527 -1.733526 l -0.01804,6.787185 -0.01803,6.787188 0.03366,0.08778 0.03366,0.08779 z"
       id="path1192" />
  </g>
</svg>
