<?xml version="1.0" encoding="UTF-8" standalone="no"?>
<svg
   xmlns:dc="http://purl.org/dc/elements/1.1/"
   xmlns:cc="http://creativecommons.org/ns#"
   xmlns:rdf="http://www.w3.org/1999/02/22-rdf-syntax-ns#"
   xmlns:svg="http://www.w3.org/2000/svg"
   xmlns="http://www.w3.org/2000/svg"
   xmlns:sodipodi="http://sodipodi.sourceforge.net/DTD/sodipodi-0.dtd"
   xmlns:inkscape="http://www.inkscape.org/namespaces/inkscape"
   width="50.799999mm"
   height="50.799999mm"
   viewBox="0 0 50.799999 50.799997"
   version="1.1"
   id="svg8"
   inkscape:version="1.0.2-2 (e86c870879, 2021-01-15)"
   sodipodi:docname="Icon_192.svg">
  <defs
     id="defs2" />
  <sodipodi:namedview
     id="base"
     pagecolor="#ffffff"
     bordercolor="#666666"
     borderopacity="1.0"
     inkscape:pageopacity="0.0"
     inkscape:pageshadow="2"
     inkscape:zoom="0.7071068"
     inkscape:cx="445.15363"
     inkscape:cy="192.43049"
     inkscape:document-units="mm"
     inkscape:current-layer="layer1"
     inkscape:document-rotation="0"
     showgrid="false"
     fit-margin-top="0"
     fit-margin-left="0"
     fit-margin-right="0"
     fit-margin-bottom="0"
     inkscape:window-width="1920"
     inkscape:window-height="1009"
     inkscape:window-x="1912"
     inkscape:window-y="-8"
     inkscape:window-maximized="1" />
  <metadata
     id="metadata5">
    <rdf:RDF>
      <cc:Work
         rdf:about="">
        <dc:format>image/svg+xml</dc:format>
        <dc:type
           rdf:resource="http://purl.org/dc/dcmitype/StillImage" />
        <dc:title></dc:title>
      </cc:Work>
    </rdf:RDF>
  </metadata>
  <g
     inkscape:label="Layer 1"
     inkscape:groupmode="layer"
     id="layer1"
     transform="translate(-4.3465891,-37.621666)"
     style="display:inline">
    <rect
       style="display:inline;fill:#e3e3e3;fill-opacity:1;fill-rule:evenodd;stroke-width:0.113947"
       id="rect1204"
       width="50.799999"
       height="50.799999"
       x="4.3465891"
       y="37.621666"
       rx="12.094847"
       ry="12.094847" />
    <g
       id="g1732"
       transform="matrix(0.47522144,0,0,0.47522144,-2.3953567,12.611615)">
      <g
         id="g1720"
         transform="translate(104.79468,1.5268468)">
        <path
           style="font-size:70.6173px;line-height:1.25;font-family:'ShoCard Caps NF';-inkscape-font-specification:'ShoCard Caps NF';display:inline;fill:#37a0f7;fill-opacity:1;stroke:#ffffff;stroke-width:1.85208;stroke-miterlimit:4;stroke-dasharray:none;stroke-opacity:1"
           d="m -7.5703085,122.83999 q -2.6128415,0.84741 -3.8133355,1.05926 -1.200494,0.21186 -2.189136,0.21186 -1.482963,0 -2.61284,-0.21186 -0.07062,-3.53086 -0.07062,-7.20296 v -13.4879 q 0,-3.17778 0,-5.296297 0,-2.118519 0.07062,-2.259754 0.07062,-2.118519 0.423704,-3.813334 0.353086,-1.765432 0.918025,-3.530865 h -14.970868 q 0.494321,2.471606 0.77679,4.872594 0.282469,2.400988 0.282469,4.943211 v 36.932845 h 19.2079065 z"
           id="path1064" />
        <path
           d="m -7.5703086,122.84 q -2.6128414,0.84741 -3.8133354,1.05926 -1.200494,0.21186 -2.189136,0.21186 -1.482963,0 -2.61284,-0.21186 -0.07062,-3.53086 -0.07062,-7.20296 v -13.4879 q 0,-3.17778 0,-5.296304 0,-2.11852 0.07062,-2.25976 0.07062,-2.11852 0.423704,-3.81333 0.353086,-1.76543 0.918025,-3.53087 h -14.970867 q 0.494321,2.47161 0.776789,4.8726 0.282469,2.40099 0.282469,4.94321 V 135.0568 h 19.2079064 z m -0.141235,14.47655 H -33.133773 l -7.697285,-36.15606 q -0.564938,-2.471604 -1.624198,-4.660744 -0.988643,-2.25975 -1.977285,-4.5195 h 13.064201 q -0.282469,-1.48297 -0.564939,-2.8247 -0.282469,-1.41234 -0.564938,-2.824691 h 20.761487 q -0.353087,0.91803 -0.77679,2.118521 -0.423704,1.12988 -0.847408,2.400989 -0.353087,1.20049 -0.635556,2.400991 -0.211852,1.20049 -0.211852,2.11852 v 26.905194 q 2.471606,-0.14124 4.7313604,-0.98865 2.33037,-0.8474 4.5195071,-1.55358 z"
           style="font-size:70.6173px;line-height:1.25;font-family:'ShoCard Caps NF';-inkscape-font-specification:'ShoCard Caps NF';display:inline;fill:#484848;fill-opacity:1;stroke-width:1.76544"
           id="path1064-4" />
      </g>
      <g
         id="g1724"
         transform="translate(141.06485,15.715448)">
        <path
           style="font-size:70.6173px;line-height:1.25;font-family:'ShoCard Caps NF';-inkscape-font-specification:'ShoCard Caps NF';display:inline;fill:#37a0f7;fill-opacity:1;stroke:#ffffff;stroke-width:1.85208;stroke-miterlimit:4;stroke-dasharray:none;stroke-opacity:1"
           d="m -70.816289,82.805468 q 0,-2.542222 -1.341729,-4.307655 -1.341728,-1.765433 -4.307655,-1.765433 h -6.426175 v -6.779261 h 12.075559 V 59.713611 h -15.888893 q -2.471605,0 -4.166421,0.494321 -1.624198,0.423704 -2.683459,1.482963 -1.05926,1.05926 -1.55358,2.89531 -0.4237,1.765432 -0.4237,4.44889 v 12.075558 q 0,4.166421 1.6242,5.790619 1.694811,1.624198 4.59012,1.624198 h 5.720001 v 7.132343 h -11.934321 v 10.663217 h 17.72494 q 2.189137,0 3.530865,-0.56494 1.412346,-0.56494 2.118519,-1.6242 0.776791,-1.05926 1.05926,-2.54222 0.282469,-1.48297 0.282469,-3.319017 z"
           id="path1062-1" />
        <path
           d="m -70.816289,82.805466 q 0,-2.542222 -1.341729,-4.307655 -1.341728,-1.765433 -4.307655,-1.765433 h -6.426175 v -6.779261 h 12.075559 V 59.713609 h -15.888894 q -2.471605,0 -4.166421,0.494321 -1.624198,0.423704 -2.683459,1.482963 -1.059259,1.05926 -1.55358,2.89531 -0.423699,1.765432 -0.423699,4.44889 v 12.075558 q 0,4.166421 1.6242,5.790619 1.694811,1.624198 4.59012,1.624198 h 5.72 v 7.132343 h -11.93432 v 10.663219 h 17.72494 q 2.189137,0 3.530865,-0.56494 1.412346,-0.56494 2.118519,-1.6242 0.776791,-1.05926 1.05926,-2.54222 0.282469,-1.48297 0.282469,-3.319019 z m -5.578767,-10.663212 v 2.400988 h 0.776791 q 3.672099,0 5.296297,2.400988 1.694815,2.400989 1.694815,5.861236 v 17.513094 q 0,2.25975 -0.847407,3.88395 -0.77679,1.55358 -2.11852,2.54222 -1.271112,0.98864 -3.036544,1.41235 -1.765433,0.49432 -3.6721,0.49432 h -19.560989 l -2.895307,-13.699759 h 3.036537 v -1.412345 h 8.544695 l -0.07062,-0.494321 h -3.883945 q -3.10717,0 -5.01383,-1.200494 -1.906667,-1.200494 -3.107157,-3.177779 -1.12988,-2.047901 -1.76544,-4.660741 -0.63555,-2.612841 -1.27111,-5.50815 -0.35308,-1.83605 -0.84741,-3.954569 -0.49432,-2.118519 -0.49432,-4.166421 0,-1.129877 0.28247,-2.330371 0.28247,-1.271111 0.98864,-2.259753 0.70618,-1.05926 1.76544,-1.694816 1.05926,-0.635555 2.683448,-0.635555 h 2.8247 q 1.05926,-2.965927 3.46024,-4.378273 2.400991,-1.482963 5.366918,-1.482963 h 19.490375 v 14.547164 z"
           style="font-size:70.6173px;line-height:1.25;font-family:'ShoCard Caps NF';-inkscape-font-specification:'ShoCard Caps NF';fill:#484848;fill-opacity:1;stroke-width:1.76544"
           id="path1062" />
      </g>
    </g>
  </g>
</svg>
