<?xml version="1.0" encoding="UTF-8" standalone="no"?>
<svg
   xmlns:dc="http://purl.org/dc/elements/1.1/"
   xmlns:cc="http://creativecommons.org/ns#"
   xmlns:rdf="http://www.w3.org/1999/02/22-rdf-syntax-ns#"
   xmlns:svg="http://www.w3.org/2000/svg"
   xmlns="http://www.w3.org/2000/svg"
   xmlns:sodipodi="http://sodipodi.sourceforge.net/DTD/sodipodi-0.dtd"
   xmlns:inkscape="http://www.inkscape.org/namespaces/inkscape"
   width="135.46666mm"
   height="135.46667mm"
   viewBox="0 0 135.46666 135.46667"
   version="1.1"
   id="svg8"
   inkscape:version="1.0.2-2 (e86c870879, 2021-01-15)"
   sodipodi:docname="Icon_512.svg">
  <defs
     id="defs2" />
  <sodipodi:namedview
     id="base"
     pagecolor="#ffffff"
     bordercolor="#666666"
     borderopacity="1.0"
     inkscape:pageopacity="0.0"
     inkscape:pageshadow="2"
     inkscape:zoom="1.4142136"
     inkscape:cx="217.21159"
     inkscape:cy="240.77983"
     inkscape:document-units="mm"
     inkscape:current-layer="layer1"
     inkscape:document-rotation="0"
     showgrid="false"
     fit-margin-top="0"
     fit-margin-left="0"
     fit-margin-right="0"
     fit-margin-bottom="0"
     inkscape:window-width="1920"
     inkscape:window-height="1009"
     inkscape:window-x="1912"
     inkscape:window-y="-8"
     inkscape:window-maximized="1" />
  <metadata
     id="metadata5">
    <rdf:RDF>
      <cc:Work
         rdf:about="">
        <dc:format>image/svg+xml</dc:format>
        <dc:type
           rdf:resource="http://purl.org/dc/dcmitype/StillImage" />
        <dc:title></dc:title>
      </cc:Work>
    </rdf:RDF>
  </metadata>
  <g
     inkscape:label="Layer 1"
     inkscape:groupmode="layer"
     id="layer1"
     transform="translate(-4.3465893,-37.621667)"
     style="display:inline">
    <rect
       style="display:inline;fill:#e3e3e3;fill-rule:evenodd;stroke-width:0.303857;fill-opacity:1"
       id="rect1204"
       width="135.46666"
       height="135.46666"
       x="4.3465891"
       y="37.621666"
       rx="32.252922"
       ry="32.252922" />
    <path
       style="display:inline;fill:#30a9c2;fill-opacity:1;stroke-width:0.184797"
       d="m 84.063055,156.79943 -29.677961,0.0366 -13.079329,-0.0923 -13.079328,-0.0924 -0.696424,-0.69551 -0.696425,-0.69551 -0.100736,-16.38788 -0.100737,-16.38788 -0.03987,-32.459777 -0.03987,-32.459775 0.26816,-0.641019 0.26816,-0.64102 0.612081,-0.372725 0.612084,-0.372722 h 3.883098 3.883098 l 0.612084,0.372722 0.612081,0.372725 0.264941,0.633321 0.264938,0.633321 0.02244,22.586813 0.02243,22.586816 0.249386,0.4855 0.249386,0.4855 0.299326,0.11473 0.299325,0.11472 h 2.203791 2.20379 V 84.42171 64.919748 l 0.365021,-0.512003 0.365022,-0.512004 0.523989,-0.216781 0.523991,-0.21678 5.782164,0.05387 5.782164,0.05387 0.632748,0.689857 0.632746,0.689858 0.01653,5.220071 0.01653,5.220073 0.237948,-0.831084 0.237948,-0.831084 1.703182,-5.817587 1.703184,-5.817587 0.640105,-2.216223 0.640104,-2.216224 0.270068,-0.411699 0.27007,-0.411698 0.576943,-0.297989 0.576945,-0.297987 0.669452,0.08363 0.669453,0.08363 3.143461,0.93303 3.14346,0.93303 2.299854,0.674682 2.299857,0.674681 0.344997,0.184413 0.344998,0.184413 0.359233,0.58844 0.359233,0.588441 -0.0014,0.646399 -0.0014,0.646398 -0.275691,0.907706 -0.275697,0.907704 0.05081,0.05075 0.05081,0.05075 4.873362,-0.639137 4.873363,-0.639139 0.657735,0.32708 0.657728,0.327079 0.330621,0.461714 0.330622,0.461713 0.728251,4.617132 0.728258,4.617133 0.579817,3.878392 0.579818,3.878391 0.450345,2.862621 0.450352,2.862622 1.297488,8.081629 1.297488,8.081616 v 0.17631 0.17631 l 6.560286,0.0529 6.56029,0.0529 0.5125,0.51224 0.5125,0.51224 v 4.25867 4.25866 l -0.60387,0.53879 -0.60388,0.5388 H 73.875924 38.916734 l -0.540503,0.53985 -0.540506,0.53985 v 14.70509 14.70508 l 0.424923,0.42441 0.424921,0.4244 1.932674,0.10858 1.932673,0.10858 5.243817,0.0177 5.243817,0.0177 -0.742324,-0.84231 -0.742324,-0.84229 -0.391589,-0.83207 -0.391587,-0.83206 -0.285361,-1.22896 -0.285361,-1.22896 0.0041,-2.2267 0.0041,-2.22669 0.180764,-0.92964 0.180762,-0.92965 0.381288,-1.01784 0.381289,-1.01785 0.930332,-1.04255 0.930329,-1.04254 0.98722,-0.46646 0.987219,-0.46646 0.810768,-0.18049 0.810769,-0.18048 26.311281,-0.0353 26.311275,-0.0353 0.45436,0.42633 0.45436,0.42633 v 0.60391 0.6039 l -0.42654,0.49528 -0.42654,0.49529 -0.72325,0.11742 -0.72324,0.11742 -0.42365,0.62789 -0.42366,0.62791 -0.29948,0.93975 -0.29948,0.93975 -0.0861,2.4009 -0.0861,2.40092 0.29962,1.29279 0.29962,1.2928 0.4711,0.96959 0.4711,0.9696 h 0.40753 0.40753 l 0.4305,0.30117 0.43049,0.30117 0.26031,0.62226 0.26032,0.62226 h 2.96525 2.96525 l 0.56007,0.28927 0.56008,0.28928 0.35123,0.77267 0.35122,0.77266 0.004,3.19499 0.004,3.19499 -0.2598,0.49872 -0.25979,0.49871 -0.49155,0.45871 -0.49154,0.45872 -1.32889,0.0588 -1.3289,0.0588 -29.677955,0.0366 z m -3.374593,-17.0468 22.882538,1e-5 v -1.29239 -1.29239 l -22.882538,-3.7e-4 -22.882543,-4.6e-4 v 1.29279 1.2928 z M 73.70813,103.92367 h 7.004737 l 0.08314,-0.13852 0.08315,-0.13851 -0.424927,-2.67793 -0.42492,-2.677942 -0.47373,-3.139652 -0.473729,-3.139646 -0.843481,-5.540559 -0.843473,-5.540562 -0.636287,-4.155419 -0.636286,-4.155419 -0.08243,-0.554056 -0.08244,-0.554056 -0.02544,-0.09234 -0.02544,-0.09234 -0.52263,1.75451 -0.522629,1.754511 -1.578302,5.448216 -1.578304,5.448214 -1.420696,4.894162 -1.420698,4.894162 -1.171143,4.054279 -1.171142,4.054277 0.09116,0.14732 0.09115,0.14731 z m -11.169452,-0.39047 0.572296,0.0211 0.281188,-0.3232 0.281188,-0.3232 0.12979,-0.55405 0.12979,-0.55406 2.95891,-10.065345 2.958909,-10.065348 1.298749,-4.432448 1.29875,-4.432447 0.519617,-1.75451 0.519618,-1.754511 0.977168,-3.458917 0.977175,-3.458917 -0.0872,-0.08709 -0.08721,-0.08709 -3.507059,-1.020905 -3.507062,-1.020905 -1.148833,-0.354413 -1.148833,-0.354413 -0.162985,0.211855 -0.162986,0.211854 -0.974418,3.231993 -0.974417,3.231992 -0.699307,2.400909 -0.699309,2.400909 -1.146585,3.878392 -1.146586,3.878391 -1.000993,3.525387 -1.000992,3.525387 0.04811,8.47916 0.04812,8.47915 1.941549,0.30211 1.941549,0.3021 z M 52.35109,103.18493 h 0.09246 v -0.0923 -0.0923 h -0.09246 -0.09246 v 0.0923 0.0923 z m -6.102011,-0.18469 h 0.09246 v -0.0923 -0.0923 h -0.09246 -0.09246 v 0.0923 0.0923 z m 8.875653,0 h 0.09246 v -0.0923 -0.0923 h -0.09246 -0.09246 v 0.0923 0.0923 z m 28.170062,-5.615666 0.490901,-0.09673 4.116423,-0.500469 4.116416,-0.500462 -0.08113,-0.290866 -0.08113,-0.290873 -0.122351,-0.785695 -0.122344,-0.785695 -0.122295,0.07109 -0.122296,0.07109 -4.068012,0.495806 -4.068006,0.495806 -0.435773,0.08875 -0.435767,0.08875 0.130186,0.868788 0.130178,0.868794 0.09206,0.149329 0.09206,0.149321 z M 55.124732,90.072271 h 0.09246 v -0.09234 -0.09234 h -0.09246 -0.09246 v 0.09234 0.09234 z m -4.369725,-14.645241 4.554634,-0.03724 0.05546,-1.06194 0.05546,-1.061941 h -4.724419 -4.724418 v 0.984988 0.984989 l 0.114329,0.114191 0.11433,0.114191 z m 4.369725,-8.071051 h 0.09246 v -0.09234 -0.09234 h -0.09246 -0.09246 v 0.09234 0.09234 z m -8.875653,-0.554056 h 0.09246 v -0.09234 -0.09234 h -0.09246 -0.09246 v 0.09234 0.09234 z m 8.875653,0 h 0.09246 v -0.09234 -0.09234 h -0.09246 -0.09246 v 0.09234 0.09234 z"
       id="path1196"
       sodipodi:nodetypes="cccccccccccccccccccccccccccccccccccccccccccccccccccccccccccccccccccccccccccccccccccccccccccccccccccccccccccccccccccccccccccccccccccccccccccccccccccccccccccccccccccccccccccccccccccccccccccccccccccccccccccccccccccccccccccccccccccccccccccccccccccccccccccccccccccccccccccccccccccccccccccccccccccccccccccccccccccccccccccccccccccccc" />
    <path
       style="display:inline;fill:#434343;fill-opacity:1;stroke-width:0.184797"
       d="m 72.302426,156.74298 -43.657507,6.9e-4 -0.628302,-0.41798 -0.6283,-0.41798 -0.329204,-0.67003 -0.329203,-0.67003 -0.03617,-48.63851 -0.03617,-48.63851 0.14517,-0.410743 0.145172,-0.410744 0.590021,-0.42034 0.59002,-0.420341 h 3.993406 3.993404 l 0.506424,0.270498 0.506425,0.270498 0.307815,0.560586 0.307817,0.560586 0.09245,22.963504 0.09246,22.963506 0.43653,0.35301 0.436533,0.35302 h 2.290882 2.290883 V 84.618127 65.312577 l 0.254615,-0.608641 0.254617,-0.608642 0.651649,-0.308853 0.65165,-0.308852 5.426883,3.69e-4 5.426882,3.69e-4 0.647184,0.322911 0.647183,0.322913 0.327872,0.646399 0.32787,0.646398 -0.05051,4.940482 -0.05051,4.940481 0.09588,-1.49e-4 0.09588,-1.5e-4 1.4264,-4.847989 1.426401,-4.84799 1.158907,-4.04583 1.158907,-4.045831 0.480341,-0.514552 0.480339,-0.514553 0.524979,-0.131601 0.524978,-0.131601 2.970235,0.86252 2.970234,0.86252 3.026545,0.880851 3.026552,0.88085 0.529758,0.529122 0.529764,0.529119 0.117753,0.626893 0.117746,0.626892 -0.313681,1.116605 -0.313688,1.116606 0.0827,0.0826 0.0827,0.0826 3.7684,-0.486167 3.768393,-0.486168 1.030037,-0.129256 1.030044,-0.129257 0.551877,0.142834 0.551884,0.142834 0.425479,0.452352 0.425472,0.452351 0.448591,2.645173 0.448591,2.645174 0.831041,5.540559 0.83104,5.540559 1.102482,7.018045 1.102475,7.018037 0.101511,0.554056 0.101504,0.554056 0.548173,3.509019 0.548166,3.509026 0.106745,0.50788 0.106746,0.50789 h 6.281412 6.28142 l 0.56011,0.28929 0.56011,0.28929 0.2628,0.6282 0.26279,0.62804 v 3.52089 3.52088 l -0.25213,0.60272 -0.25214,0.60271 -0.48099,0.31478 -0.481,0.31478 H 73.706231 38.743437 l -0.453868,0.45332 -0.45387,0.45332 v 14.86236 14.86238 l 0.306059,0.30568 0.306058,0.30569 0.445617,0.16922 0.445618,0.16921 h 6.851127 6.851128 l -0.660691,-0.73041 -0.660691,-0.73042 -0.35743,-0.7009 -0.357429,-0.70089 -0.310776,-1.01577 -0.310776,-1.01577 -0.106019,-2.25491 -0.106018,-2.2549 0.231568,-1.43881 0.231566,-1.43879 0.510882,-1.12747 0.510884,-1.12749 0.661046,-0.73081 0.661046,-0.7308 0.904242,-0.49156 0.904241,-0.49155 1.185892,-0.2792 1.185892,-0.27919 26.126862,-0.003 26.126863,-0.003 0.45387,0.45332 0.45387,0.45332 v 0.53754 0.53755 l -0.3832,0.48657 -0.38321,0.48658 -0.73606,0.11756 -0.73607,0.11755 -0.43345,0.57506 -0.43345,0.57505 -0.32642,0.92343 -0.32641,0.92343 -0.0795,2.58559 -0.0795,2.5856 0.29842,1.27501 0.29841,1.27503 0.48773,0.89503 0.48773,0.89503 0.2942,7e-4 0.29421,7e-4 0.60559,0.36879 0.60561,0.36878 0.11092,0.55395 0.11093,0.55387 h 3.04559 3.04559 l 0.51196,0.30206 0.51198,0.30205 0.34865,0.5752 0.34865,0.57519 -0.0533,3.59845 -0.0533,3.59844 -0.28031,0.42728 -0.2803,0.42728 -0.59091,0.35987 -0.59091,0.35986 -43.65751,6.9e-4 z m 9.042632,-11.83583 24.186312,0.0167 -0.45784,-0.60023 -0.45784,-0.60022 -0.47097,-1.40241 -0.47098,-1.4024 -0.0182,-2.47599 -0.0182,-2.47599 0.19126,-0.95951 0.19126,-0.95951 0.29112,-0.6959 0.29112,-0.69589 0.29897,-0.32996 0.29897,-0.32996 -0.16734,-0.004 -0.16734,-0.004 -24.311686,0.008 -24.311686,0.008 -0.65109,0.33563 -0.651088,0.33564 -0.599362,0.78092 -0.599362,0.78091 -0.299974,1.03063 -0.299977,1.03063 0.07986,2.32761 0.07986,2.32761 0.428543,0.97503 0.428542,0.97504 0.91927,0.8255 0.919272,0.8255 0.58112,0.16817 0.581121,0.16818 24.186317,0.0167 z m -7.729383,-4.96984 h -0.09245 v -0.0924 -0.0923 h 0.09245 0.09246 v 0.0923 0.0924 z m 19.970223,0 h -0.09246 v -0.0924 -0.0923 h 0.09246 0.09245 v 0.0923 0.0924 z M 73.70813,103.92367 h 7.211469 v -0.0937 -0.0937 L 80.3571,100.09004 79.794593,96.443918 78.965495,90.9957 78.13639,85.547482 77.49561,81.29972 l -0.640787,-4.247762 -0.414256,-2.816451 -0.414255,-2.816451 -0.09586,1.85e-4 -0.09586,1.84e-4 -0.909524,3.093276 -0.90952,3.093274 -0.59599,2.031538 -0.595991,2.031539 -1.122267,3.878388 -1.122265,3.878391 -2.041186,7.056052 -2.041186,7.056097 v 0.19285 0.19284 z m -11.149493,-0.21041 0.03752,0.0257 0.472143,-0.21486 0.472142,-0.21486 0.355268,-1.21645 0.35527,-1.21645 1.473838,-4.986503 1.473837,-4.986504 1.695523,-5.817591 1.695522,-5.817586 0.986913,-3.324334 0.986914,-3.324336 0.383272,-1.38514 0.383271,-1.38514 1.08981,-3.736968 1.089797,-3.736967 -0.207362,-0.155952 -0.207369,-0.155952 -2.496277,-0.697132 -2.496278,-0.697129 -2.108127,-0.636385 -2.108126,-0.636385 -0.128345,0.147589 -0.128346,0.147589 -1.524967,5.171189 -1.524964,5.171188 -0.614924,2.031539 -0.614922,2.031538 -1.292049,4.432447 -1.292049,4.432445 -0.38924,1.403564 -0.389238,1.403558 0.04809,8.569442 0.0481,8.569446 2.218914,0.38983 2.218913,0.38982 z m 22.224597,-0.0743 0.666646,-0.0958 3.584624,-0.44432 3.584625,-0.44431 0.161558,-0.16136 0.161551,-0.16136 -0.466237,-2.943964 -0.466238,-2.943968 -0.262789,-1.477485 -0.262789,-1.477485 -0.57668,-3.78605 -0.576673,-3.786043 -1.008421,-6.463988 -1.008421,-6.463985 -0.499231,-3.190075 -0.499224,-3.190075 -0.121163,-0.195811 -0.121163,-0.19581 -4.285487,0.539258 -4.285487,0.539259 -0.183125,0.182905 -0.183132,0.182907 0.555574,3.587146 0.555567,3.587149 0.551178,3.693705 0.551178,3.693707 0.754752,4.986503 0.754752,4.986503 0.353433,2.308565 0.353432,2.308566 0.475065,3.129321 0.475057,3.129325 0.300311,0.33143 0.300305,0.33144 z m -34.054661,-0.49701 4.581068,-0.0494 V 84.808743 66.524895 h -4.622736 -4.622736 l -0.0481,18.099158 -0.04809,18.099167 0.08976,0.23408 0.08976,0.2341 z"
       id="path1192" />
  </g>
</svg>
