<?xml version="1.0" encoding="UTF-8" standalone="no"?>
<svg
   xmlns:dc="http://purl.org/dc/elements/1.1/"
   xmlns:cc="http://creativecommons.org/ns#"
   xmlns:rdf="http://www.w3.org/1999/02/22-rdf-syntax-ns#"
   xmlns:svg="http://www.w3.org/2000/svg"
   xmlns="http://www.w3.org/2000/svg"
   xmlns:sodipodi="http://sodipodi.sourceforge.net/DTD/sodipodi-0.dtd"
   xmlns:inkscape="http://www.inkscape.org/namespaces/inkscape"
   width="949.92853"
   height="192"
   viewBox="0 0 251.33524 50.800001"
   version="1.1"
   id="svg8"
   inkscape:version="1.0.2-2 (e86c870879, 2021-01-15)"
   sodipodi:docname="Logo_Header.svg">
  <defs
     id="defs2" />
  <sodipodi:namedview
     id="base"
     pagecolor="#ffffff"
     bordercolor="#666666"
     borderopacity="1.0"
     inkscape:pageopacity="0.0"
     inkscape:pageshadow="2"
     inkscape:zoom="0.98994949"
     inkscape:cx="421.17378"
     inkscape:cy="222.69544"
     inkscape:document-units="mm"
     inkscape:current-layer="g1037"
     inkscape:document-rotation="0"
     showgrid="false"
     units="px"
     fit-margin-top="0"
     fit-margin-left="0"
     fit-margin-right="0"
     fit-margin-bottom="0"
     inkscape:window-width="1920"
     inkscape:window-height="1009"
     inkscape:window-x="1912"
     inkscape:window-y="-8"
     inkscape:window-maximized="1" />
  <metadata
     id="metadata5">
    <rdf:RDF>
      <cc:Work
         rdf:about="">
        <dc:format>image/svg+xml</dc:format>
        <dc:type
           rdf:resource="http://purl.org/dc/dcmitype/StillImage" />
        <dc:title></dc:title>
      </cc:Work>
    </rdf:RDF>
  </metadata>
  <g
     inkscape:label="Layer 1"
     inkscape:groupmode="layer"
     id="layer1"
     transform="translate(-50.728764,14.212492)">
    <g
       id="g1029"
       style="display:inline"
       transform="translate(-3.8378012)">
      <path
         style="display:inline;fill:#37a0f7;fill-opacity:1;stroke:#ffffff;stroke-width:1.85208333;stroke-miterlimit:4;stroke-dasharray:none;stroke-opacity:1;stop-color:#000000"
         d="m 287.05379,-12.03959 c -2.61589,-8e-6 -4.64559,0.558411 -6.09368,1.679485 -1.40136,1.1210979 -2.10427,3.1538995 -2.10427,6.0967842 V 24.742661 c 0,3.223156 0.70291,5.605869 2.10427,7.147367 1.44809,1.541512 3.52438,2.313037 6.23373,2.313037 h 16.53851 V 23.904469 h -12.3336 v -7.359241 h 12.40234 V 6.0352753 h -12.40234 v -7.9855589 h 12.3336 V -12.03959 Z"
         id="path982" />
      <path
         style="display:inline;fill:#37a0f7;fill-opacity:1;stroke:#ffffff;stroke-width:1.85208333;stroke-miterlimit:4;stroke-dasharray:none;stroke-opacity:1;stop-color:#000000"
         d="m 254.48937,-12.03959 v 46.242655 h 12.54239 V 16.685788 h 8.61859 V 6.0352753 h -8.47803 c -0.0833,-2.6602598 0,-7.9855589 0,-7.9855589 h 8.47803 V -12.03959 Z"
         id="path980" />
      <path
         style="display:inline;fill:#37a0f7;fill-opacity:1;stroke:#ffffff;stroke-width:1.85208333;stroke-miterlimit:4;stroke-dasharray:none;stroke-opacity:1;stop-color:#000000"
         d="m 237.75551,-12.03959 v 46.242655 h 12.49123 l 0.0517,-1.112077 V -12.03959 Z"
         id="path978" />
      <path
         style="display:inline;fill:#37a0f7;fill-opacity:1;stroke:#ffffff;stroke-width:1.85208333;stroke-miterlimit:4;stroke-dasharray:none;stroke-opacity:1;stop-color:#000000"
         d="m 212.29091,-12.18015 c 0.32699,1.634929 0.58624,3.2461042 0.77308,4.8343292 0.18681,1.588222 0.28061,3.2208991 0.28061,4.9025441 V 34.203065 h 19.05672 l 1.9637,-12.122258 c -1.72836,0.560553 -2.98963,0.910423 -3.78375,1.050582 -0.79409,0.140157 -1.51849,0.21239 -2.17248,0.21239 -0.98096,0 -1.84625,-0.07223 -2.59364,-0.21239 -0.0466,-2.335628 -0.0682,-4.718321 -0.0682,-7.147367 V 2.6034435 -2.6515328 c 0,-1.401372 0.0212,-2.1514041 0.0682,-2.2448242 0.0467,-1.4013725 0.18759,-2.6590376 0.42117,-3.7801301 0.23357,-1.1678153 0.53635,-2.3358559 0.91002,-3.5036629 z"
         id="path968" />
      <path
         style="display:inline;fill:#30a9c2;fill-opacity:1;stroke:#30a9c2;stroke-width:1;stroke-miterlimit:4;stroke-dasharray:none;stroke-opacity:1;stop-color:#000000"
         d="m 250.14442,36.447372 0.15399,-2.244307 h -0.0512 z"
         id="path964" />
      <path
         id="path24"
         style="font-size:10.5833px;line-height:1.25;font-family:'ShoCard Caps NF';-inkscape-font-specification:'ShoCard Caps NF';fill:#484848;fill-opacity:1;stroke-width:6.62067"
         d="m 698.66211,0 v 21.453125 l -27.375,-0.257813 c 0.35603,-1.327721 0.65626,-2.656626 1.04687,-3.984374 1.05922,-3.177926 2.12232,-6.175201 3.18164,-9.0000005 1.05926,-3.0013606 2.02726,-5.6560122 2.91016,-7.95117188 h -77.85742 c 0.70639,3.53102358 1.41301,7.05884278 2.11914,10.58984338 0.70639,3.35446 1.41496,6.895928 2.12109,10.603516 H 555.8125 c 2.47177,5.649623 4.95213,11.28983 7.42383,16.939453 2.64824,5.473062 4.67739,11.303136 6.08984,17.482422 l 28.86133,135.5957 h 155.50977 l 0.38671,-8.48437 H 706.87305 V 8.2109375 H 754.2793 V 178.78516 l -0.19532,4.20117 h 0.19532 l -0.58203,8.48437 h 72.03711 v -57.99609 h 7.91406 l 4.20312,20.37891 c 2.47178,11.65234 7.4169,20.92894 14.83203,27.81445 C 860.09876,188.55341 869.89419,192 882.07617,192 h 82.35742 v -56.14648 h -46.3457 v -2.6504 h 26.22461 l -1.84961,-8.74218 h 21.9707 V 68.585938 h -33.89257 l -2.91016,-13.771485 h 36.80273 V 0.25976562 h -71.23632 c -8.12142,0 -15.35705,1.49863938 -21.71289,4.49999998 -5.81953,2.826652 -10.17499,8.0188394 -13.17579,15.3867184 V 0.25976562 L 762.47656,0 Z m -88.0332,7.6816406 h 56.14453 c -1.4123,4.4137624 -2.55667,8.8264494 -3.43946,13.2402344 -0.88282,4.237202 -1.41345,8.992538 -1.58984,14.289063 -0.17764,0.353083 -0.25976,3.185897 -0.25976,8.482421 v 19.863282 50.572269 c 0,9.18064 0.0836,18.1861 0.25976,27.01367 2.82478,0.52974 6.09517,0.80078 9.80274,0.80078 2.47177,0 5.20965,-0.27105 8.21093,-0.80078 3.0014,-0.52974 7.7684,-1.85208 14.30078,-3.9707 l -7.42187,45.81445 H 614.61133 V 44.482422 c 0,-6.355824 -0.3545,-12.526572 -1.06055,-18.529297 -0.70617,-6.002748 -1.68601,-12.092225 -2.92187,-18.2714844 z m 159.49023,0.5292969 h 79.97852 V 46.345703 h -32.04297 c 0,0 -0.31484,20.125162 0,30.179688 h 32.04297 v 40.255859 h -32.57422 v 66.20508 h -47.4043 z m 123.07617,0 h 63.03907 V 46.345703 h -46.61524 v 30.179688 h 46.875 V 116.25 h -46.875 v 27.81445 h 46.61524 v 38.92188 h -62.50782 c -10.24002,0 -18.08745,-2.91405 -23.56054,-8.74024 -5.29648,-5.82613 -7.95313,-14.83166 -7.95313,-27.01367 V 37.603516 c 0,-11.122712 2.65665,-18.805745 7.95313,-23.042969 5.47309,-4.237123 13.14246,-6.349636 23.02929,-6.3496095 z"
         transform="matrix(0.26458333,0,0,0.26458333,50.728764,-14.212492)" />
    </g>
    <g
       id="g1037">
      <path
         style="display:inline;fill:#37a0f7;fill-opacity:1;stroke:#ffffff;stroke-width:1.85208;stroke-miterlimit:4;stroke-dasharray:none;stroke-opacity:1;stop-color:#000000"
         d="m 175.17638,-12.03959 v 46.242655 h 12.54239 V 16.685788 h 8.61808 V 6.0352753 h -8.47803 v -7.9855589 h 8.47803 V -12.03959 Z"
         id="path976" />
      <path
         style="display:inline;fill:#37a0f7;fill-opacity:1;stroke:#ffffff;stroke-width:1.85208;stroke-miterlimit:4;stroke-dasharray:none;stroke-opacity:1;stop-color:#000000"
         d="m 130.9827,-12.03959 c -2.61589,-8e-6 -4.64871,0.558414 -6.09679,1.679485 -1.40136,1.1210979 -2.10064,3.1539022 -2.10064,6.0967842 V 24.742661 c 0,3.22315 0.69928,5.605888 2.10064,7.147367 1.44808,1.541531 3.52804,2.313037 6.23735,2.313037 h 16.53543 V 23.904469 h -12.33052 v -7.359241 h 12.40235 V 6.0352753 h -12.40235 v -7.9855589 h 12.33052 V -12.03959 Z"
         id="path974" />
      <path
         style="display:inline;fill:#37a0f7;fill-opacity:1;stroke:#ffffff;stroke-width:1.85208;stroke-miterlimit:4;stroke-dasharray:none;stroke-opacity:1;stop-color:#000000"
         d="m 89.32116,-12.03959 v 46.242655 h 12.68295 v -17.93844 h 5.0431 v 17.93844 h 12.47417 V -12.03959 H 107.04721 V 5.4053396 h -5.18315 V -12.03959 Z"
         id="path972" />
      <path
         style="display:inline;fill:#37a0f7;fill-opacity:1;stroke:#ffffff;stroke-width:1.85208;stroke-miterlimit:4;stroke-dasharray:none;stroke-opacity:1;stop-color:#000000"
         d="m 69.508417,-12.111938 c -1.634932,0 -3.011996,0.16238 -4.13308,0.489376 -1.074402,0.280273 -1.964267,0.770549 -2.664955,1.471229 -0.700688,0.700683 -1.212964,1.6592023 -1.539957,2.8737271 -0.280328,1.1678118 -0.420645,2.6386141 -0.420645,4.413683 V 9.1177745 c 0,2.7560335 0.536887,4.6730635 1.61127,5.7474525 1.121101,1.074376 2.638518,1.611788 4.553728,1.611788 h 5.676138 v 7.075021 H 60.74978 v 10.582299 h 17.585489 c 1.448093,0 2.616134,-0.187459 3.503662,-0.561206 0.934263,-0.373712 1.636599,-0.9106 2.103747,-1.611271 0.513813,-0.700688 0.863743,-1.54033 1.050582,-2.521293 0.186835,-0.980981 0.280603,-2.08036 0.280603,-3.294889 v -15.3448 c 0,-1.6816442 -0.44364,-3.1053102 -1.331185,-4.2731241 C 83.055152,5.3599049 81.63148,4.7759208 79.669555,4.7759208 h -6.37739 v -6.7262044 h 11.824086 l 0.157612,-0.5100462 v -9.6516082 z"
         id="path970" />
      <path
         style="display:inline;fill:#37a0f7;fill-opacity:1;stroke:#ffffff;stroke-width:1.85208;stroke-miterlimit:4;stroke-dasharray:none;stroke-opacity:1;stop-color:#000000"
         d="m 150.23475,-12.18015 c 0.32702,1.634927 0.58264,3.2461042 0.76947,4.8343292 0.18686,1.5882241 0.2806,3.2209001 0.2806,4.9025441 V 34.203065 h 19.06034 l 1.9606,-12.122258 c -1.72835,0.560554 -2.99017,0.910427 -3.78427,1.050582 -0.79411,0.140163 -1.51848,0.21239 -2.17247,0.21239 -0.98095,-2e-6 -1.84264,-0.07224 -2.59003,-0.21239 -0.0466,-2.335628 -0.0718,-4.718321 -0.0718,-7.147367 V 2.6034435 -2.6515328 c 0,-1.401372 0.0249,-2.1514041 0.0718,-2.2448242 0.047,-1.4013725 0.1876,-2.6590323 0.42117,-3.7801301 0.23357,-1.1678153 0.53634,-2.3358559 0.91002,-3.5036629 z"
         id="path966" />
      <path
         id="path14"
         style="font-size:10.5833px;line-height:1.25;font-family:'ShoCard Caps NF';-inkscape-font-specification:'ShoCard Caps NF';fill:#484848;fill-opacity:1;stroke-width:6.62067"
         d="M 65.146484,0 C 57.731395,0 51.028093,1.8529097 45.025391,5.5605469 39.022624,9.0915477 34.691242,14.55558 32.042969,21.970703 H 21.453125 c -4.060656,0 -7.41241,0.803616 -10.060547,2.392578 -2.6483335,1.588963 -4.8556234,3.699421 -6.6210936,6.347657 -1.7656668,2.471776 -3.0047101,5.3045 -3.7109375,8.482421 C 0.35438748,42.194724 0,45.110743 0,47.935547 c 0,5.119986 0.62558139,10.324566 1.8613281,15.621094 1.2358829,5.29652 2.2852337,10.24173 3.1679688,14.832031 1.5889625,7.238608 3.1825219,14.118003 4.7714843,20.65039 1.5889628,6.532378 3.7963168,12.362458 6.6210938,17.482418 3.001349,4.94345 6.885456,8.9088 11.652344,11.91016 4.766819,3.00137 11.032548,4.51172 18.800781,4.51172 h 14.572266 l 0.259765,1.84961 H 29.664062 v 5.30273 H 18.271484 l 10.863282,51.375 h 73.357424 c 4.76675,0 9.35768,-0.62753 13.77148,-1.86328 4.41374,-1.05924 8.2127,-2.81736 11.39063,-5.28906 0.12249,-0.09 0.23112,-0.19117 0.34961,-0.2832 L 129.71094,192 h 138.5039 v -6.2207 c 6.57253,4.12362 14.55887,6.2207 23.98633,6.2207 h 82.35742 v -0.53125 h 79.3711 5.04297 66.99609 v -57.99414 h 12.18164 l -1.86328,-8.48438 h 22.25391 V 68.056641 H 526.49805 V 54.814453 h 32.04297 V 0.2578125 h -96.4004 V 21.453125 l -25.39648,-0.259766 c 0.3549,-1.326833 0.65818,-2.654686 1.04883,-3.982421 1.05921,-3.177926 2.1204,-6.175204 3.17969,-9.0000005 1.05951,-3.0013644 2.02733,-5.6580144 2.91015,-7.953125 h -69.32422 -8.5332 -62.70312 c -8.12145,0 -15.36888,1.4986431 -21.72461,4.5 C 275.64615,7.6485766 271.21832,12.984719 268.21484,20.625 V 0 h -63.82812 v 21.453125 h -2.9082 V 0 h -63.23243 -0.5957 z M 376.08594,7.6816406 h 56.14648 c -1.41233,4.4137584 -2.55667,8.8264494 -3.43945,13.2402344 -0.88279,4.237221 -1.41412,8.992535 -1.5918,14.289063 -0.17726,0.353082 -0.27148,3.185897 -0.27148,8.482421 v 19.863282 50.572269 c 0,9.18064 0.0954,18.1861 0.27148,27.01367 2.82478,0.52972 6.08154,0.80077 9.78906,0.80078 2.47178,0 5.20958,-0.27103 8.21094,-0.80078 3.00132,-0.52972 7.77039,-1.85209 14.30274,-3.9707 l -7.41016,45.81445 H 380.05469 V 44.482422 c 0,-6.35582 -0.35431,-12.526568 -1.06055,-18.529297 -0.70613,-6.002748 -1.67226,-12.092229 -2.9082,-18.2714844 z M 70.978516,7.9394531 H 130.56445 V 44.417969 l -0.5957,1.927734 H 85.279297 v 25.421875 h 24.103513 c 7.41516,0 12.79596,2.207184 16.15039,6.621094 3.3545,4.413785 5.03125,9.794572 5.03125,16.15039 v 57.996098 c 0,4.59034 -0.35439,8.74352 -1.06054,12.45117 -0.70616,3.70757 -2.02873,6.88298 -3.97071,9.53125 -1.7656,2.6482 -4.4201,4.67739 -7.95117,6.08984 -3.35443,1.41259 -7.76908,2.1211 -13.24219,2.1211 H 37.875 v -39.9961 H 82.628906 V 115.99219 H 61.175781 c -7.238585,0 -12.973705,-2.03117 -17.210937,-6.0918 C 39.904187,105.83971 37.875,98.594237 37.875,88.177734 V 42.892578 c 0,-6.708922 0.530336,-12.267856 1.589844,-16.68164 1.235879,-4.590324 3.17009,-8.213074 5.818359,-10.861329 2.64827,-2.648239 6.013494,-4.501247 10.074219,-5.5605465 4.237168,-1.2358866 9.441819,-1.8496094 15.621094,-1.8496094 z m 74.882814,0.2714844 h 47.40625 V 74.146484 h 19.58984 V 8.2109375 h 47.14649 V 182.98633 h -47.14649 v -67.79688 h -19.06054 v 67.79688 h -47.93555 z m 157.46094,0 h 63.02539 V 46.345703 h -46.60352 v 30.179688 h 46.875 V 116.25 h -46.875 v 27.81445 h 46.60352 v 38.92188 h -62.49414 c -10.23992,0 -18.10116,-2.91398 -23.57422,-8.74024 -5.29652,-5.82606 -7.93946,-14.83168 -7.93946,-27.01367 V 37.603516 c 0,-11.122708 2.64294,-18.805745 7.93946,-23.042969 5.47306,-4.237119 13.15614,-6.349636 23.04297,-6.3496095 z m 167.02929,0 h 79.97852 V 46.345703 h -32.04297 v 30.179688 h 32.04297 v 40.255859 h -32.57227 v 66.20508 h -47.40625 z"
         transform="matrix(0.26458333,0,0,0.26458333,50.728764,-14.212492)" />
    </g>
  </g>
</svg>
